<svg id="visual" viewBox="0 0 4000 900" width="4000" height="900" xmlns="http://www.w3.org/2000/svg" xmlns:xlink="http://www.w3.org/1999/xlink" version="1.1"><rect x="0" y="0" width="4000" height="900" fill="#e8e8ea"></rect><path d="M0 128L95.2 140.8C190.3 153.7 380.7 179.3 571.2 177C761.7 174.7 952.3 144.3 1142.8 131.2C1333.3 118 1523.7 122 1714.2 145.3C1904.7 168.7 2095.3 211.3 2285.8 213.8C2476.3 216.3 2666.7 178.7 2857.2 180C3047.7 181.3 3238.3 221.7 3428.8 224.5C3619.3 227.3 3809.7 192.7 3904.8 175.3L4000 158L4000 0L3904.8 0C3809.7 0 3619.3 0 3428.8 0C3238.3 0 3047.7 0 2857.2 0C2666.7 0 2476.3 0 2285.8 0C2095.3 0 1904.7 0 1714.2 0C1523.7 0 1333.3 0 1142.8 0C952.3 0 761.7 0 571.2 0C380.7 0 190.3 0 95.2 0L0 0Z" fill="#002233" stroke-linecap="round" stroke-linejoin="miter"></path></svg>