<svg id="visual" viewBox="0 0 6000 4000" width="6000" height="4000" xmlns="http://www.w3.org/2000/svg" xmlns:xlink="http://www.w3.org/1999/xlink" version="1.1"><rect x="0" y="0" width="6000" height="4000" fill="#e8e8ea"></rect><path d="M0 2166L250 2201C500 2236 1000 2306 1500 2356.7C2000 2407.3 2500 2438.7 3000 2376.2C3500 2313.7 4000 2157.3 4500 2129.2C5000 2101 5500 2201 5750 2251L6000 2301L6000 0L5750 0C5500 0 5000 0 4500 0C4000 0 3500 0 3000 0C2500 0 2000 0 1500 0C1000 0 500 0 250 0L0 0Z" fill="#002233" stroke-linecap="round" stroke-linejoin="miter"></path></svg>