<svg id="visual" viewBox="0 0 6000 6000" width="6000" height="6000" xmlns="http://www.w3.org/2000/svg" xmlns:xlink="http://www.w3.org/1999/xlink" version="1.1"><rect x="0" y="0" width="6000" height="6000" fill="#e8e8ea"></rect><path d="M0 3250L250 3302.5C500 3355 1000 3460 1500 3535.8C2000 3611.7 2500 3658.3 3000 3564.5C3500 3470.7 4000 3236.3 4500 3194.2C5000 3152 5500 3302 5750 3377L6000 3452L6000 0L5750 0C5500 0 5000 0 4500 0C4000 0 3500 0 3000 0C2500 0 2000 0 1500 0C1000 0 500 0 250 0L0 0Z" fill="#002233" stroke-linecap="round" stroke-linejoin="miter"></path></svg>