<svg id="visual" viewBox="0 0 2000 800" width="2000" height="800" xmlns="http://www.w3.org/2000/svg" xmlns:xlink="http://www.w3.org/1999/xlink" version="1.1"><rect x="0" y="0" width="2000" height="800" fill="#ffffff"></rect><path d="M0 280L30.3 290.2C60.7 300.3 121.3 320.7 182 330C242.7 339.3 303.3 337.7 363.8 339C424.3 340.3 484.7 344.7 545.2 340.8C605.7 337 666.3 325 727 312.8C787.7 300.7 848.3 288.3 909 288.7C969.7 289 1030.3 302 1091 309.5C1151.7 317 1212.3 319 1273 327.2C1333.7 335.3 1394.3 349.7 1454.8 348.5C1515.3 347.3 1575.7 330.7 1636.2 327.2C1696.7 323.7 1757.3 333.3 1818 338.8C1878.7 344.3 1939.3 345.7 1969.7 346.3L2000 347L2000 0L1969.7 0C1939.3 0 1878.7 0 1818 0C1757.3 0 1696.7 0 1636.2 0C1575.7 0 1515.3 0 1454.8 0C1394.3 0 1333.7 0 1273 0C1212.3 0 1151.7 0 1091 0C1030.3 0 969.7 0 909 0C848.3 0 787.7 0 727 0C666.3 0 605.7 0 545.2 0C484.7 0 424.3 0 363.8 0C303.3 0 242.7 0 182 0C121.3 0 60.7 0 30.3 0L0 0Z" fill="#001122" stroke-linecap="round" stroke-linejoin="miter"></path></svg>