<svg id="visual" viewBox="0 0 2000 800" width="2000" height="800" xmlns="http://www.w3.org/2000/svg" xmlns:xlink="http://www.w3.org/1999/xlink" version="1.1"><path d="M0 473L41.7 464.2C83.3 455.3 166.7 437.7 250 413.8C333.3 390 416.7 360 500 357.2C583.3 354.3 666.7 378.7 750 399C833.3 419.3 916.7 435.7 1000 426C1083.3 416.3 1166.7 380.7 1250 378.5C1333.3 376.3 1416.7 407.7 1500 409.3C1583.3 411 1666.7 383 1750 388.5C1833.3 394 1916.7 433 1958.3 452.5L2000 472L2000 0L1958.3 0C1916.7 0 1833.3 0 1750 0C1666.7 0 1583.3 0 1500 0C1416.7 0 1333.3 0 1250 0C1166.7 0 1083.3 0 1000 0C916.7 0 833.3 0 750 0C666.7 0 583.3 0 500 0C416.7 0 333.3 0 250 0C166.7 0 83.3 0 41.7 0L0 0Z" fill="#001122" stroke-linecap="round" stroke-linejoin="miter"></path></svg>