<svg id="visual" viewBox="0 0 1600 1200" width="1600" height="1200" xmlns="http://www.w3.org/2000/svg" xmlns:xlink="http://www.w3.org/1999/xlink" version="1.1"><rect x="0" y="0" width="1600" height="1200" fill="#282828"></rect><path d="M0 255L44.5 295.8C89 336.7 178 418.3 266.8 472C355.7 525.7 444.3 551.3 533.2 567.3C622 583.3 711 589.7 800 547.3C889 505 978 414 1066.8 395.7C1155.7 377.3 1244.3 431.7 1333.2 451.8C1422 472 1511 458 1555.5 451L1600 444L1600 0L1555.5 0C1511 0 1422 0 1333.2 0C1244.3 0 1155.7 0 1066.8 0C978 0 889 0 800 0C711 0 622 0 533.2 0C444.3 0 355.7 0 266.8 0C178 0 89 0 44.5 0L0 0Z" fill="#0093ff"></path><path d="M0 324L44.5 288.7C89 253.3 178 182.7 266.8 203.3C355.7 224 444.3 336 533.2 373.8C622 411.7 711 375.3 800 325.3C889 275.3 978 211.7 1066.8 196C1155.7 180.3 1244.3 212.7 1333.2 231.8C1422 251 1511 257 1555.5 260L1600 263L1600 0L1555.5 0C1511 0 1422 0 1333.2 0C1244.3 0 1155.7 0 1066.8 0C978 0 889 0 800 0C711 0 622 0 533.2 0C444.3 0 355.7 0 266.8 0C178 0 89 0 44.5 0L0 0Z" fill="#0069ff"></path><path d="M0 36L44.5 64.3C89 92.7 178 149.3 266.8 167.2C355.7 185 444.3 164 533.2 145.5C622 127 711 111 800 98.8C889 86.7 978 78.3 1066.8 87.2C1155.7 96 1244.3 122 1333.2 135.7C1422 149.3 1511 150.7 1555.5 151.3L1600 152L1600 0L1555.5 0C1511 0 1422 0 1333.2 0C1244.3 0 1155.7 0 1066.8 0C978 0 889 0 800 0C711 0 622 0 533.2 0C444.3 0 355.7 0 266.8 0C178 0 89 0 44.5 0L0 0Z" fill="#5a12ff"></path></svg>