<svg id="visual" viewBox="0 0 4000 50" width="4000" height="50" xmlns="http://www.w3.org/2000/svg" xmlns:xlink="http://www.w3.org/1999/xlink" version="1.1"><rect x="0" y="0" width="4000" height="50" fill="#e8e8ea"></rect><path d="M0 17L95.2 18.8C190.3 20.7 380.7 24.3 571.2 24C761.7 23.7 952.3 19.3 1142.8 17.5C1333.3 15.7 1523.7 16.3 1714.2 19.5C1904.7 22.7 2095.3 28.3 2285.8 28.7C2476.3 29 2666.7 24 2857.2 24.3C3047.7 24.7 3238.3 30.3 3428.8 30.7C3619.3 31 3809.7 26 3904.8 23.5L4000 21L4000 0L3904.8 0C3809.7 0 3619.3 0 3428.8 0C3238.3 0 3047.7 0 2857.2 0C2666.7 0 2476.3 0 2285.8 0C2095.3 0 1904.7 0 1714.2 0C1523.7 0 1333.3 0 1142.8 0C952.3 0 761.7 0 571.2 0C380.7 0 190.3 0 95.2 0L0 0Z" fill="#002233" stroke-linecap="round" stroke-linejoin="miter"></path></svg>