<svg id="visual" viewBox="0 0 4000 100" width="4000" height="100" xmlns="http://www.w3.org/2000/svg" xmlns:xlink="http://www.w3.org/1999/xlink" version="1.1"><rect x="0" y="0" width="4000" height="100" fill="#e8e8ea"></rect><path d="M0 35L95.2 38.5C190.3 42 380.7 49 571.2 48.3C761.7 47.7 952.3 39.3 1142.8 35.7C1333.3 32 1523.7 33 1714.2 39.5C1904.7 46 2095.3 58 2285.8 58.8C2476.3 59.7 2666.7 49.3 2857.2 49.7C3047.7 50 3238.3 61 3428.8 61.7C3619.3 62.3 3809.7 52.7 3904.8 47.8L4000 43L4000 0L3904.8 0C3809.7 0 3619.3 0 3428.8 0C3238.3 0 3047.7 0 2857.2 0C2666.7 0 2476.3 0 2285.8 0C2095.3 0 1904.7 0 1714.2 0C1523.7 0 1333.3 0 1142.8 0C952.3 0 761.7 0 571.2 0C380.7 0 190.3 0 95.2 0L0 0Z" fill="#002233" stroke-linecap="round" stroke-linejoin="miter"></path></svg>