<svg id="visual" viewBox="0 0 4000 100" width="4000" height="100" xmlns="http://www.w3.org/2000/svg" xmlns:xlink="http://www.w3.org/1999/xlink" version="1.1"><rect x="0" y="0" width="4000" height="100" fill="#e8e8ea"></rect><path d="M0 34L21.5 36.3C43 38.7 86 43.3 129 45.8C172 48.3 215 48.7 258 46.8C301 45 344 41 387 39.3C430 37.7 473 38.3 516 43.5C559 48.7 602 58.3 645 62.2C688 66 731 64 774 59.2C817 54.3 860 46.7 903 43.5C946 40.3 989 41.7 1032 44.5C1075 47.3 1118 51.7 1161 56C1204 60.3 1247 64.7 1290 66.5C1333 68.3 1376 67.7 1419 62.8C1462 58 1505 49 1548 43.7C1591 38.3 1634 36.7 1677 36.8C1720 37 1763 39 1806 41.7C1849 44.3 1892 47.7 1935.2 47.5C1978.3 47.3 2021.7 43.7 2064.8 43.5C2108 43.3 2151 46.7 2194 46.5C2237 46.3 2280 42.7 2323 45.8C2366 49 2409 59 2452 57C2495 55 2538 41 2581 41.5C2624 42 2667 57 2710 59.3C2753 61.7 2796 51.3 2839 47C2882 42.7 2925 44.3 2968 41.8C3011 39.3 3054 32.7 3097 36.2C3140 39.7 3183 53.3 3226 54.8C3269 56.3 3312 45.7 3355 45C3398 44.3 3441 53.7 3484 54.8C3527 56 3570 49 3613 42.7C3656 36.3 3699 30.7 3742 33.2C3785 35.7 3828 46.3 3871 50.2C3914 54 3957 51 3978.5 49.5L4000 48L4000 0L3978.5 0C3957 0 3914 0 3871 0C3828 0 3785 0 3742 0C3699 0 3656 0 3613 0C3570 0 3527 0 3484 0C3441 0 3398 0 3355 0C3312 0 3269 0 3226 0C3183 0 3140 0 3097 0C3054 0 3011 0 2968 0C2925 0 2882 0 2839 0C2796 0 2753 0 2710 0C2667 0 2624 0 2581 0C2538 0 2495 0 2452 0C2409 0 2366 0 2323 0C2280 0 2237 0 2194 0C2151 0 2108 0 2064.8 0C2021.7 0 1978.3 0 1935.2 0C1892 0 1849 0 1806 0C1763 0 1720 0 1677 0C1634 0 1591 0 1548 0C1505 0 1462 0 1419 0C1376 0 1333 0 1290 0C1247 0 1204 0 1161 0C1118 0 1075 0 1032 0C989 0 946 0 903 0C860 0 817 0 774 0C731 0 688 0 645 0C602 0 559 0 516 0C473 0 430 0 387 0C344 0 301 0 258 0C215 0 172 0 129 0C86 0 43 0 21.5 0L0 0Z" fill="#002233" stroke-linecap="round" stroke-linejoin="miter"></path></svg>