<svg id="visual" viewBox="0 0 960 540" width="960" height="540" xmlns="http://www.w3.org/2000/svg" xmlns:xlink="http://www.w3.org/1999/xlink" version="1.1"><rect x="0" y="0" width="960" height="540" fill="#ffffff"></rect><path d="M0 174L6.2 171.3C12.3 168.7 24.7 163.3 37 157.3C49.3 151.3 61.7 144.7 74 149.5C86.3 154.3 98.7 170.7 111 173.3C123.3 176 135.7 165 148 162.5C160.3 160 172.7 166 185 171C197.3 176 209.7 180 221.8 178.5C234 177 246 170 258.2 164.8C270.3 159.7 282.7 156.3 295 151C307.3 145.7 319.7 138.3 332 141.2C344.3 144 356.7 157 369 162.8C381.3 168.7 393.7 167.3 406 162.7C418.3 158 430.7 150 443 144.8C455.3 139.7 467.7 137.3 480 144.5C492.3 151.7 504.7 168.3 517 173.2C529.3 178 541.7 171 554 169.7C566.3 168.3 578.7 172.7 591 167.2C603.3 161.7 615.7 146.3 628 147.5C640.3 148.7 652.7 166.3 665 166.8C677.3 167.3 689.7 150.7 701.8 151.2C714 151.7 726 169.3 738.2 172.7C750.3 176 762.7 165 775 164.3C787.3 163.7 799.7 173.3 812 174C824.3 174.7 836.7 166.3 849 158.3C861.3 150.3 873.7 142.7 886 139.8C898.3 137 910.7 139 923 139.8C935.3 140.7 947.7 140.3 953.8 140.2L960 140L960 0L953.8 0C947.7 0 935.3 0 923 0C910.7 0 898.3 0 886 0C873.7 0 861.3 0 849 0C836.7 0 824.3 0 812 0C799.7 0 787.3 0 775 0C762.7 0 750.3 0 738.2 0C726 0 714 0 701.8 0C689.7 0 677.3 0 665 0C652.7 0 640.3 0 628 0C615.7 0 603.3 0 591 0C578.7 0 566.3 0 554 0C541.7 0 529.3 0 517 0C504.7 0 492.3 0 480 0C467.7 0 455.3 0 443 0C430.7 0 418.3 0 406 0C393.7 0 381.3 0 369 0C356.7 0 344.3 0 332 0C319.7 0 307.3 0 295 0C282.7 0 270.3 0 258.2 0C246 0 234 0 221.8 0C209.7 0 197.3 0 185 0C172.7 0 160.3 0 148 0C135.7 0 123.3 0 111 0C98.7 0 86.3 0 74 0C61.7 0 49.3 0 37 0C24.7 0 12.3 0 6.2 0L0 0Z" fill="#001122" stroke-linecap="round" stroke-linejoin="miter"></path></svg>