<svg id="visual" viewBox="0 0 4000 200" width="4000" height="200" xmlns="http://www.w3.org/2000/svg" xmlns:xlink="http://www.w3.org/1999/xlink" version="1.1"><rect x="0" y="0" width="4000" height="200" fill="#e8e8ea"></rect><path d="M0 70L21.5 74.5C43 79 86 88 129 92.8C172 97.7 215 98.3 258 94.5C301 90.7 344 82.3 387 79C430 75.7 473 77.3 516 87.7C559 98 602 117 645 124.5C688 132 731 128 774 118.7C817 109.3 860 94.7 903 88.5C946 82.3 989 84.7 1032 90.2C1075 95.7 1118 104.3 1161 113.2C1204 122 1247 131 1290 134.7C1333 138.3 1376 136.7 1419 126.7C1462 116.7 1505 98.3 1548 87.5C1591 76.7 1634 73.3 1677 73.8C1720 74.3 1763 78.7 1806 84.2C1849 89.7 1892 96.3 1935.2 96C1978.3 95.7 2021.7 88.3 2064.8 88C2108 87.7 2151 94.3 2194 94C2237 93.7 2280 86.3 2323 92.7C2366 99 2409 119 2452 115C2495 111 2538 83 2581 84.2C2624 85.3 2667 115.7 2710 120.2C2753 124.7 2796 103.3 2839 94.7C2882 86 2925 90 2968 85.2C3011 80.3 3054 66.7 3097 73.5C3140 80.3 3183 107.7 3226 110.7C3269 113.7 3312 92.3 3355 91C3398 89.7 3441 108.3 3484 110.5C3527 112.7 3570 98.3 3613 85.5C3656 72.7 3699 61.3 3742 66.7C3785 72 3828 94 3871 102C3914 110 3957 104 3978.5 101L4000 98L4000 0L3978.5 0C3957 0 3914 0 3871 0C3828 0 3785 0 3742 0C3699 0 3656 0 3613 0C3570 0 3527 0 3484 0C3441 0 3398 0 3355 0C3312 0 3269 0 3226 0C3183 0 3140 0 3097 0C3054 0 3011 0 2968 0C2925 0 2882 0 2839 0C2796 0 2753 0 2710 0C2667 0 2624 0 2581 0C2538 0 2495 0 2452 0C2409 0 2366 0 2323 0C2280 0 2237 0 2194 0C2151 0 2108 0 2064.8 0C2021.7 0 1978.3 0 1935.2 0C1892 0 1849 0 1806 0C1763 0 1720 0 1677 0C1634 0 1591 0 1548 0C1505 0 1462 0 1419 0C1376 0 1333 0 1290 0C1247 0 1204 0 1161 0C1118 0 1075 0 1032 0C989 0 946 0 903 0C860 0 817 0 774 0C731 0 688 0 645 0C602 0 559 0 516 0C473 0 430 0 387 0C344 0 301 0 258 0C215 0 172 0 129 0C86 0 43 0 21.5 0L0 0Z" fill="#002233" stroke-linecap="round" stroke-linejoin="miter"></path></svg>