<svg id="visual" viewBox="0 0 900 600" width="900" height="600" xmlns="http://www.w3.org/2000/svg" xmlns:xlink="http://www.w3.org/1999/xlink" version="1.1"><rect x="0" y="0" width="900" height="600" fill="#ffffff"></rect><path d="M0 291L5.8 297.5C11.7 304 23.3 317 34.8 322.7C46.3 328.3 57.7 326.7 69.2 313.7C80.7 300.7 92.3 276.3 103.8 275C115.3 273.7 126.7 295.3 138.2 297C149.7 298.7 161.3 280.3 173 274.5C184.7 268.7 196.3 275.3 207.8 275.7C219.3 276 230.7 270 242.2 278C253.7 286 265.3 308 277 307.2C288.7 306.3 300.3 282.7 311.8 269.5C323.3 256.3 334.7 253.7 346.2 266.7C357.7 279.7 369.3 308.3 380.8 310.7C392.3 313 403.7 289 415.2 285.3C426.7 281.7 438.3 298.3 450 309C461.7 319.7 473.3 324.3 484.8 317C496.3 309.7 507.7 290.3 519.2 280.2C530.7 270 542.3 269 553.8 271.7C565.3 274.3 576.7 280.7 588.2 283.8C599.7 287 611.3 287 623 284.3C634.7 281.7 646.3 276.3 657.8 285.5C669.3 294.7 680.7 318.3 692.2 327.8C703.7 337.3 715.3 332.7 727 316C738.7 299.3 750.3 270.7 761.8 273.5C773.3 276.3 784.7 310.7 796.2 312C807.7 313.3 819.3 281.7 830.8 276C842.3 270.3 853.7 290.7 865.2 301.8C876.7 313 888.3 315 894.2 316L900 317L900 0L894.2 0C888.3 0 876.7 0 865.2 0C853.7 0 842.3 0 830.8 0C819.3 0 807.7 0 796.2 0C784.7 0 773.3 0 761.8 0C750.3 0 738.7 0 727 0C715.3 0 703.7 0 692.2 0C680.7 0 669.3 0 657.8 0C646.3 0 634.7 0 623 0C611.3 0 599.7 0 588.2 0C576.7 0 565.3 0 553.8 0C542.3 0 530.7 0 519.2 0C507.7 0 496.3 0 484.8 0C473.3 0 461.7 0 450 0C438.3 0 426.7 0 415.2 0C403.7 0 392.3 0 380.8 0C369.3 0 357.7 0 346.2 0C334.7 0 323.3 0 311.8 0C300.3 0 288.7 0 277 0C265.3 0 253.7 0 242.2 0C230.7 0 219.3 0 207.8 0C196.3 0 184.7 0 173 0C161.3 0 149.7 0 138.2 0C126.7 0 115.3 0 103.8 0C92.3 0 80.7 0 69.2 0C57.7 0 46.3 0 34.8 0C23.3 0 11.7 0 5.8 0L0 0Z" fill="#001122" stroke-linecap="round" stroke-linejoin="miter"></path></svg>