<svg id="visual" viewBox="0 0 960 540" width="960" height="540" xmlns="http://www.w3.org/2000/svg" xmlns:xlink="http://www.w3.org/1999/xlink" version="1.1"><rect x="0" y="0" width="960" height="540" fill="#282828"></rect><path d="M0 114L26.7 132.3C53.3 150.7 106.7 187.3 160 211.5C213.3 235.7 266.7 247.3 320 254.7C373.3 262 426.7 265 480 246C533.3 227 586.7 186 640 177.7C693.3 169.3 746.7 193.7 800 202.7C853.3 211.7 906.7 205.3 933.3 202.2L960 199L960 0L933.3 0C906.7 0 853.3 0 800 0C746.7 0 693.3 0 640 0C586.7 0 533.3 0 480 0C426.7 0 373.3 0 320 0C266.7 0 213.3 0 160 0C106.7 0 53.3 0 26.7 0L0 0Z" fill="#0093ff"></path><path d="M0 145L26.7 129.2C53.3 113.3 106.7 81.7 160 91C213.3 100.3 266.7 150.7 320 167.7C373.3 184.7 426.7 168.3 480 145.8C533.3 123.3 586.7 94.7 640 87.7C693.3 80.7 746.7 95.3 800 104C853.3 112.7 906.7 115.3 933.3 116.7L960 118L960 0L933.3 0C906.7 0 853.3 0 800 0C746.7 0 693.3 0 640 0C586.7 0 533.3 0 480 0C426.7 0 373.3 0 320 0C266.7 0 213.3 0 160 0C106.7 0 53.3 0 26.7 0L0 0Z" fill="#0069ff"></path><path d="M0 16L26.7 28.7C53.3 41.3 106.7 66.7 160 74.7C213.3 82.7 266.7 73.3 320 65C373.3 56.7 426.7 49.3 480 43.8C533.3 38.3 586.7 34.7 640 38.7C693.3 42.7 746.7 54.3 800 60.5C853.3 66.7 906.7 67.3 933.3 67.7L960 68L960 0L933.3 0C906.7 0 853.3 0 800 0C746.7 0 693.3 0 640 0C586.7 0 533.3 0 480 0C426.7 0 373.3 0 320 0C266.7 0 213.3 0 160 0C106.7 0 53.3 0 26.7 0L0 0Z" fill="#5a12ff"></path></svg>